<?xml version="1.0" encoding="UTF-8" standalone="no"?>
<!-- Created with Inkscape (http://www.inkscape.org/) -->
<svg id="svg3383" xmlns:inkscape="http://www.inkscape.org/namespaces/inkscape" xmlns:rdf="http://www.w3.org/1999/02/22-rdf-syntax-ns#" xmlns="http://www.w3.org/2000/svg" sodipodi:docname="dota_logo_opt_inverted.svg" height="60" width="60" version="1.1" xmlns:cc="http://creativecommons.org/ns#" xmlns:dc="http://purl.org/dc/elements/1.1/" inkscape:version="0.91 r13725" xmlns:sodipodi="http://sodipodi.sourceforge.net/DTD/sodipodi-0.dtd">
 <sodipodi:namedview id="base" bordercolor="#666666" inkscape:pageshadow="2" inkscape:window-y="-8" pagecolor="#ffffff" inkscape:window-height="745" inkscape:window-maximized="1" inkscape:zoom="4.4757595" inkscape:window-x="54" showgrid="false" borderopacity="1.0" inkscape:current-layer="layer1" inkscape:cx="44.135616" inkscape:cy="32.540561" inkscape:window-width="1304" inkscape:pageopacity="0.0" inkscape:document-units="px"/>
 <metadata id="metadata3388">
  <rdf:RDF>
   <cc:Work rdf:about="">
    <dc:format>image/svg+xml</dc:format>
    <dc:type rdf:resource="http://purl.org/dc/dcmitype/StillImage"/>
    <dc:title/>
   </cc:Work>
  </rdf:RDF>
 </metadata>
 <g id="layer1" inkscape:label="Layer 1" inkscape:groupmode="layer" transform="translate(0 -992.36)">
  <path id="rect3011" d="m0 0v60h60v-60zm13.684 12.15h1.3652c12.838 8.822 25.78 17.161 36.201 24.701 0 0-1.0363 6.479-2.5078 9.0781-0.63806 1.1151-0.77342 1.2537-1.3301 1.3457-0.72037 0.1196-1.0603 0.10993-2.625-0.07227-2.0858-0.2429-3.8617-1.0164-4.6504-2.0254-0.18823-0.2407-1.5478-1.7241-3.0195-3.2969-7.366-8.015-16.718-18.001-25.383-26.842-1.7806-1.901-1.7345-1.687-0.496-2.33 0.9575-0.4968 1.2348-0.55859 2.4453-0.55859zm30.15 0.29492c1.4179-0.1406 2.3806 0.95875 3.7383 1.916-0.21708 2.795-0.64371 5.1401-0.95703 7.0215-0.09875 0.5921-0.43908 0.82652-0.75 0.51563-3.5882-2.553-6.5606-4.7523-9.7969-7.4512 2.4981-0.74285 5.2772-1.6358 7.7656-2.002zm-29.428 22.906c4.2082 3.8936 7.892 7.3041 10.496 10.211-2.6436 1.0896-5.2998 1.6688-8.3477 2.502-0.74775-0.1265-2.2715-1.31-3.291-2l-2.4355-1.8223c-0.5571-0.78621-0.19277-1.2177 3.5781-8.8906z" fill-rule="evenodd" sodipodi:nodetypes="cccccsccccsccccscccccccccccc" inkscape:connector-curvature="0" transform="translate(0 992.36)"/>
 </g>
</svg>
