<?xml version="1.0" encoding="UTF-8" standalone="no"?>
<!-- Created with Inkscape (http://www.inkscape.org/) -->

<svg
   xmlns:dc="http://purl.org/dc/elements/1.1/"
   xmlns:cc="http://creativecommons.org/ns#"
   xmlns:rdf="http://www.w3.org/1999/02/22-rdf-syntax-ns#"
   xmlns:svg="http://www.w3.org/2000/svg"
   xmlns="http://www.w3.org/2000/svg"
   xmlns:sodipodi="http://sodipodi.sourceforge.net/DTD/sodipodi-0.dtd"
   xmlns:inkscape="http://www.inkscape.org/namespaces/inkscape"
   width="60"
   height="60"
   id="svg3383"
   version="1.1"
   inkscape:version="0.48.4 r9939"
   sodipodi:docname="github_logo_opt_inverted.svg">
  <defs
     id="defs3385" />
  <sodipodi:namedview
     id="base"
     pagecolor="#ffffff"
     bordercolor="#666666"
     borderopacity="1.0"
     inkscape:pageopacity="0.0"
     inkscape:pageshadow="2"
     inkscape:zoom="4.7308333"
     inkscape:cx="18.210322"
     inkscape:cy="18.604897"
     inkscape:document-units="px"
     inkscape:current-layer="layer1"
     showgrid="false"
     inkscape:window-width="1602"
     inkscape:window-height="1028"
     inkscape:window-x="70"
     inkscape:window-y="-8"
     inkscape:window-maximized="1" />
  <metadata
     id="metadata3388">
    <rdf:RDF>
      <cc:Work
         rdf:about="">
        <dc:format>image/svg+xml</dc:format>
        <dc:type
           rdf:resource="http://purl.org/dc/dcmitype/StillImage" />
        <dc:title></dc:title>
      </cc:Work>
    </rdf:RDF>
  </metadata>
  <g
     inkscape:label="Layer 1"
     inkscape:groupmode="layer"
     id="layer1"
     transform="translate(0,-992.36218)">
    <path
       style="fill:#000000;fill-opacity:1;fill-rule:evenodd;stroke:none"
       d="M 0 0 L 0 60 L 60 60 L 60 0 L 0 0 z M 29.96875 14 C 38.479768 14 46.958335 14.025 47.3125 14.125 C 47.596445 14.2056 48.110499 14.4634 48.4375 14.6875 C 50.753992 16.2734 50.450355 19.6844 47.75 22.4375 C 46.718902 23.4888 45.760363 24.1782 34 32.5 C 33.351836 32.9586 32.399332 33.5643 31.90625 33.8125 C 30.066979 34.7389 29.010976 34.5373 26.3125 32.6875 C 20.10451 28.4323 13.288798 23.4378 12.375 22.5 C 10.546006 20.6227 9.8415221 18.88155 10.15625 17.15625 C 10.43978 15.60185 11.303507 14.51275 12.5625 14.15625 C 12.916681 14.05595 21.457731 14 29.96875 14 z M 10.1875 24.65625 C 10.274714 24.65625 10.652128 24.9321 11.0625 25.3125 C 11.472873 25.6929 13.023156 26.84215 14.46875 27.84375 C 16.805516 29.46255 19.476581 31.36575 24.3125 34.84375 C 26.114628 36.13985 27.825656 36.9661 29.09375 37.1875 C 31.257703 37.5655 33.044986 36.7949 37.5 33.5625 C 39.150242 32.3653 42.258336 30.1646 44.375 28.6875 C 46.491665 27.2104 48.559735 25.6929 48.96875 25.3125 C 49.377756 24.9321 49.78557 24.65625 49.875 24.65625 C 49.995325 24.65625 50.0294 27.04635 50 33.96875 C 49.963031 42.67205 49.928845 43.3808 49.6875 43.875 C 49.355523 44.5551 48.573329 45.38025 47.90625 45.71875 C 47.41215 45.96955 46.495827 45.97 30.25 46 C 16.110593 46.0256 12.976926 46.00695 12.53125 45.84375 C 11.383926 45.42405 10.627118 44.63565 10.21875 43.46875 C 9.9634506 42.73915 9.9340231 24.65625 10.1875 24.65625 z "
       transform="translate(0,992.36218)"
       id="rect3011" />
  </g>
</svg>
