<?xml version="1.0" encoding="UTF-8" standalone="no"?>
<!-- Created with Inkscape (http://www.inkscape.org/) -->
<svg id="svg3383" xmlns:rdf="http://www.w3.org/1999/02/22-rdf-syntax-ns#" xmlns="http://www.w3.org/2000/svg" height="60" width="60" version="1.1" xmlns:cc="http://creativecommons.org/ns#" xmlns:dc="http://purl.org/dc/elements/1.1/">
 <metadata id="metadata3388">
  <rdf:RDF>
   <cc:Work rdf:about="">
    <dc:format>image/svg+xml</dc:format>
    <dc:type rdf:resource="http://purl.org/dc/dcmitype/StillImage"/>
    <dc:title/>
   </cc:Work>
  </rdf:RDF>
 </metadata>
 <g id="layer1" transform="translate(0,-992.36218)">
  <path id="path3946" style="fill-rule:nonzero;fill:#000000;" d="M0,0v60h60v-60h-60zm30.594,3c3.975,0.1308,7.906,1.4643,11.375,3.375,6.398,3.3732,10.053,10.633,10.031,17.75-0.055,2.557-0.664,5.075-1.625,7.437-3.205,7.68-9.392,13.548-15.531,18.907-2.004,1.599-3.68,3.483-3.782,6.156-2.384,1.829-1.992-3.432-3.593-4.469-6.594-5.504-13.412-11.362-17.25-19.25-3.0244-5.62-2.8801-12.584-0.063-18.25,3.414-7.0767,11.254-10.848,18.75-11.625,0.569-0.0313,1.12-0.0499,1.688-0.0312zm-1.375,2.125c-1.719,0.0305-3.507,0.2631-4.907,1.0625-0.767,0.3598,0.572,1.8705-1.093,2.1563-1.368,0.6778,0.363-0.2121,0.25,0.5312-1.431,0.0419,0.815,0.6134,0.093,1.656-0.815-1.1202-1.527,0.264-0.187,0.219-1.088,1.588-3.724,1.731-4.437,3.781,0.112,2.812-2.753,1.094-2.344-0.5-1.142-1.744-0.173-1.766,0.062-3-0.109-0.094-0.082-0.133,0-0.125,0.012-0.086,0.059-0.152,0.063-0.25-1.349,0.934-3.397,3.085-3.469,4.844-1.411-0.36-0.844,2.549-0.031,0.5,0.239,1.354,2.12,2.414,1.969,3.938,0.993,0.955,0.723,2.177-0.719,1.062,1.129-1.837-0.506-0.695-1.719-0.812-1.44,0.946,1.006-0.174,0.344,1.124,1.667,0.348-0.632,1.692-0.094,0.563-1.163,0.714-1.626,1.308-2.5,2.344,0.008,1.761-0.5453,4.907,1.438,5.219-0.883-0.082-1.203,0.71-0.563,1.562,1.471,0.231,2.573,0.928,3.813,1.531,1.01,1.588,2.873,2.053,4.562,2.875-0.959,1.307-0.778,3.986-2.781,4.282,2.914,2.409,5.853,4.794,8.781,7.187,1.751,1.457,4.093,2.743,4.125,5.344,0.457,3.25,0.717-1.848,1.469-2.625,4.032-3.3,8.061-6.606,12.094-9.906,1.699-1.541,3.131-3.383,4.218-5.407,0.431-1.002,2.962-5.536,0.625-4.156-1.615,0.066-1.235,3.826-2.656,2.031,0.029-2.815-2.279-3.568-4.719-4.031-1.174-1.111-1.442-0.491-0.687,0.531,0.865-0.308,2.59,0.334,1.343,1.5-0.562,0.746-4.66,1.911-2.187,1.782,1.766,0.606-1.654,2.784-2.219,3.874,0.696,1.666,0.097,2.799-1.031,3.844,0.407,2.129-4.433,5.497-4.344,2.094-1.555-1.967-0.222-4.487-1.406-6.469,0.086-0.75-0.039-1.228-0.313-1.531-0.051-0.016-0.109-0.027-0.093-0.062-0.987-0.916-3.459-0.007-4.719-1-1.888-1.708-1.045-4.551,0.688-6.032,1.632-0.965-0.151-2.088,0.281-3.5,0.904,0.157,2.817-0.718,1.093-1.656,1.15-0.454,1.697-1.593,2.813-2.062,0.059-0.25,0.888-2.716,0.719-0.594,0.871,1.189,2.717-0.437,3-0.844,0.001-0.956,1.019-1.042,1.312-1.344-2.286,0.824-1.733-1.688-0.937-2.781-2.156,0.76-1.074,2.876-2,4.375-1.228,1.74-0.664-2.234-2.125-0.656-1.503-2.18,2.068-3.565,2.344-5.719,0.066-0.092,0.149-0.166,0.218-0.25-0.472,0.18,0.3-0.464,0.125-0.156,0.786-0.885,1.693-1.238,2.813-0.938,0.028,1.223,4.452,2.13,1.75,3.125-1.756-1.268-0.866,0.643-0.063,1.188-0.727-1.264,1.049,0.171,0.875-1.032,1.569-0.012,0.01-2.345,1.282-1.624-0.368,1.957,0.9-0.16,1.906-0.188-0.748,1.094,0.629-0.126,1.062,0.062,0.335,0.012,1.074-1.637,1.875,0.032,0.889,0.22-2.016-4.4-2.593-2.3752,0.914,2.3192-2.241-0.1713-0.282-1.1563-3.072-2.1408-6.773-3.3175-10.5-3.4063-0.544-0.019-1.114-0.0414-1.687-0.0312zm-4.594,1.4062c0.159,0.0129,0.237,0.1316-0.031,0.4063-0.701-0.1741-0.234-0.4276,0.031-0.4063zm-1.031,0.9063c-0.098,0.0461-0.144,0.1445,0.187,0.1875,0.059-0.2273-0.09-0.2336-0.187-0.1875zm-0.532,0.4375c-0.041,0.0017-0.068,0.0194-0.124,0.0625,0.356,0.7516,0.412-0.0747,0.124-0.0625zm10.907,2.937zm8.343,0.032c0.178-0.031,0.864,0.957,0.063,0.468-0.13-0.325-0.122-0.458-0.063-0.468zm-2.281,0.656c0.144,0.024,0.268,0.826-0.125,0.312,0.038-0.243,0.077-0.32,0.125-0.312zm5.813,1.219c-0.063,0.025-0.196,0.171-0.438,0.469-1.352,0.051-0.075,0.867,0.188,0.718,0.01-0.378,0.438-1.264,0.25-1.187zm-22.563,0.562c0.105-0.009,0.234,0.072,0.375,0.281,1.329-0.975,2.591,0.803,0.532,1.282-0.668,0.027-1.37-0.613-0.938-0.906-0.386,0.125-0.283-0.63,0.031-0.657zm4,3.875c0.359-0.155,0.775,0.743,0.625,1.282,0.972,1.008,1.195,2.342-0.687,2.25,0.375-1.229,0.266-1.808-0.25-2.969,0.019-0.078,0.04-0.127,0.062-0.188-0.044,0.042-0.089,0.1-0.187,0.157-0.226-0.264,0.137-0.377,0.25-0.313,0.061-0.121,0.118-0.189,0.187-0.219zm6.531,0.032c0.017,0.013-0.019,0.04-0.093,0.124-0.295,0.022,0.043-0.165,0.093-0.124zm-0.25,0.25c0.137-0.092,0.601,0.154,0.032,0.218-0.074-0.127-0.077-0.188-0.032-0.218zm-0.656,0.312c0.145-0.02,0.257,0.1-0.125,0.406-0.198-0.227-0.02-0.386,0.125-0.406zm-1.781,0.688c0.451-0.194,0.193,1.107-0.25,0.187,0.094-0.099,0.186-0.16,0.25-0.187zm-16.531,0.218c-0.016-0.022-0.097,0.057-0.313,0.313,0.167,0.01,0.339-0.276,0.313-0.313zm12.094,0.063c0.475,0.033,0.513,1.824-0.75,1.219-0.011-0.236,0.479-0.196,0.156-0.5,0.226-0.539,0.435-0.73,0.594-0.719zm-13.407,1.593c0.052-0.001,0.139,0.008,0.281,0.032,0.901,0.513-0.645-0.02-0.281-0.032zm0.813,1.063zm23.062,0.563c-0.061,0.007-0.153,0.061-0.281,0.124-0.199,1.918-1.244-0.994-1.719,0.719,0.464,1.491-1.886,0.893-1.218,1.844-0.849,1.44-1.26-2.329-2.657-2.031,0.628,0.361,1.725,2.622,0.563,1.75-1.12-2.707-3.38-0.687-4.313,0.812-0.84,0.811,2.258-0.544,3.094-0.187,0.083,0.91,0.579,1.402,1.594,1.812,1.292-1.134,3.805,1.243,4.406-1.031-0.42-0.511-3.525-0.586-1.5-1.812,0.313-0.968,3.115,0.818,2.75-0.5-1.235-0.35-0.292-1.551-0.719-1.5zm-6.75,1.343c0.156,0.02,0.375,0.348-0.062,0.407-0.095-0.304-0.031-0.419,0.062-0.407zm0.188,0.594zm3.031,0.813c-0.028-0.002-0.066,0.005-0.156,0.062,0.106,0.121,0.24-0.057,0.156-0.062zm-2.344,0.062c0.085,0.003,0.205,0.017,0.407,0.062,0.884,0.753-0.997-0.082-0.407-0.062zm0.313,0.625zm2.25,0.156c0.057-0.002,0.142,0.009,0.312,0.031,1.233,0.497-0.714-0.016-0.312-0.031zm2.281,0.094c0.243,0.015,0.447,0.095-0.125,0.187-0.399-0.154-0.118-0.202,0.125-0.187zm-23.219,0.25zm22.688,0.813l0.062,0.031-0.062-0.031zm4.406,1.5c0.005-0.021,0.015,0,0.094,0.031,0.091,0.248-0.11,0.029-0.094-0.031zm-27.531,1.25c0.049,0.002,0.125,0.037,0.219,0.062,0.06,0.374-0.565-0.081-0.219-0.062zm0.843,0.218zm0.219,0.188l0.125,0.062-0.125-0.062zm0.188,0.406c0.061-0.017,0.118,0.008,0,0.125-0.126-0.048-0.061-0.108,0-0.125zm0,0.312c0.062,0.015,0.107,0.292-0.063,0.094,0.017-0.085,0.042-0.098,0.063-0.094zm8.969,0.094c0.072,0.019,0.046,0.353-0.094,0.125,0.051-0.092,0.069-0.131,0.094-0.125zm-8.563,0.063c0.173-0.046,0,0.401-0.094,0.062,0.04-0.03,0.069-0.056,0.094-0.062zm-0.437,0.031zm-0.188,0.281zm0.438,0.438zm32.937,1.25c0.07-0.051,0.171,0.018,0.344,0.343-0.362,1.077-0.554-0.19-0.344-0.343zm-1.813,1.187l0.063,0.094-0.063-0.094zm-15.406,0.344c0.06,0.014,0.038,0.254-0.094,0.094,0.033-0.064,0.074-0.099,0.094-0.094zm11.344,1.406zm-2.906,1.719c0.102-0.129,0.208,0.458-0.063,0.125,0.013-0.051,0.048-0.107,0.063-0.125zm1.344,0.344c0.091-0.006,0.183,0.026,0.281,0.062,0.204,0.77-0.469,1.454-0.531,2.313-1.722,2.119-1.118-2.288,0.25-2.375zm1.906,1.843zm-0.406,0.126zm-8.813,4.468c0.414,0.118-0.711,1.119-0.281,0.032,0.131-0.028,0.222-0.049,0.281-0.032z" transform="translate(0,992.36218)"/>
 </g>
</svg>
