<?xml version="1.0" encoding="UTF-8" standalone="no"?>
<!-- Created with Inkscape (http://www.inkscape.org/) -->

<svg
   xmlns:dc="http://purl.org/dc/elements/1.1/"
   xmlns:cc="http://creativecommons.org/ns#"
   xmlns:rdf="http://www.w3.org/1999/02/22-rdf-syntax-ns#"
   xmlns:svg="http://www.w3.org/2000/svg"
   xmlns="http://www.w3.org/2000/svg"
   xmlns:sodipodi="http://sodipodi.sourceforge.net/DTD/sodipodi-0.dtd"
   xmlns:inkscape="http://www.inkscape.org/namespaces/inkscape"
   id="svg3383"
   height="60"
   width="60"
   version="1.1"
   inkscape:version="0.48.4 r9939"
   sodipodi:docname="iss_opt_inverted.svg">
  <defs
     id="defs8">
    <inkscape:perspective
       id="perspective2464"
       inkscape:persp3d-origin="372.04724 : 350.78739 : 1"
       inkscape:vp_z="744.09448 : 526.18109 : 1"
       inkscape:vp_y="0 : 1000 : 0"
       inkscape:vp_x="0 : 526.18109 : 1"
       sodipodi:type="inkscape:persp3d" />
  </defs>
  <sodipodi:namedview
     pagecolor="#ffffff"
     bordercolor="#666666"
     borderopacity="1"
     objecttolerance="10"
     gridtolerance="10"
     guidetolerance="10"
     inkscape:pageopacity="0"
     inkscape:pageshadow="2"
     inkscape:window-width="1522"
     inkscape:window-height="878"
     id="namedview6"
     showgrid="false"
     inkscape:zoom="3.9333333"
     inkscape:cx="-9.6610169"
     inkscape:cy="30"
     inkscape:window-x="70"
     inkscape:window-y="-8"
     inkscape:window-maximized="1"
     inkscape:current-layer="svg3383" />
  <metadata
     id="metadata3388">
    <rdf:RDF>
      <cc:Work
         rdf:about="">
        <dc:format>image/svg+xml</dc:format>
        <dc:type
           rdf:resource="http://purl.org/dc/dcmitype/StillImage" />
        <dc:title />
      </cc:Work>
    </rdf:RDF>
  </metadata>
  <path
     style="fill:#000000;fill-opacity:1;stroke:none"
     d="M 42.75,37.875 C 42.280997,38.977354 41.226614,39.830832 40.705343,41.007657 38.872374,43.78666 37.048976,46.57196 35.227219,49.35832 36.123812,51.106686 38.226009,50.076454 38.461357,48.472716 40.286766,45.664638 42.105828,42.852402 43.908447,40.029627 44.556431,39.888104 43.445366,38.595597 44.30235,39.182664 44.155428,38.442108 43.289915,38.244995 42.75,37.875 z M 55.6875,29.3125 C 56.204365,29.421778 57.1404,30.337495 56.147651,29.623842 L 55.918009,29.467529 55.6875,29.3125 z M 55,28.8125 C 55.886176,30.204526 54.359859,31.415241 53.628113,32.46697 52.478412,34.699137 51.091578,36.825788 49.784918,38.981595 48.511843,37.620769 51.131851,36.312361 51.385359,34.891622 52.622215,32.884805 53.908985,30.90466 55,28.8125 z M 48.34375,24.46875 C 46.210875,27.548261 44.168051,30.688629 42.077734,33.79689 42.922749,36.075824 45.250576,33.708676 45.555831,32.297472 47.06526,30.079431 48.501153,27.812757 49.955608,25.558633 49.667569,24.894473 48.821332,24.916857 48.34375,24.46875 z M 48.53125,24.25 C 49.310905,25.106631 51.700184,26.265843 52.02858,26.081593 50.892239,25.418581 49.766773,24.717399 48.53125,24.25 z M 17.15625,18.53125 C 17.572004,19.31338 19.210614,19.31188 19.12205,20.244653 18.79194,19.851631 16.983488,19.152592 18.185072,20.041934 18.681788,20.527464 21.084455,21.585268 19.309472,21.664597 17.994781,22.862407 17.061056,24.431219 15.723475,25.640106 14.165438,27.396136 12.645205,29.185296 11.085417,30.939785 9.6128204,29.896024 12.458734,28.721171 12.863408,27.637129 14.820275,25.424786 16.806811,23.238887 18.761633,21.024726 19.079299,19.626584 15.923317,20.074738 17.15625,18.53125 z M 14,16.90625 C 14.39457,17.147236 15.919504,18.171387 14.61911,17.67855 13.057402,18.541423 12.262542,20.266316 10.897182,21.373929 9.1920065,23.192516 7.4429546,24.970679 5.7884513,26.836232 4.1171809,26.143186 6.9562577,24.905222 7.318656,24.016461 9.5551899,21.655391 11.855741,19.353101 14,16.90625 z M 27.8125,10 C 29.799375,10.817358 27.352148,12.49763 26.616767,13.346274 25.005031,15.187185 23.432103,17.067234 21.76741,18.86262 21.067054,19.439597 19.278211,18.655211 20.977375,18.462873 22.561349,17.43971 23.414321,15.652112 24.815292,14.41875 25.990263,13.0998 27.237195,11.840094 28.302198,10.427238 28.239613,10.182009 27.931786,10.197101 27.8125,10 z M 22.5,5.59375 C 19.917784,8.3355753 17.221977,10.967394 14.626783,13.696728 14.640671,14.737464 16.726241,15.678985 14.914786,16.423085 14.284482,17.014554 11.704069,15.171379 13.326289,16.491148 11.709249,15.477193 11.019379,17.512451 10.011831,18.357812 8.3569953,20.060259 6.6784388,21.746565 5.0650233,23.479994 3.8193562,24.225007 2.7481647,25.925706 4.6027568,26.684087 5.6674309,27.695271 7.5164491,28.867528 8.400979,27.021303 10.783883,24.382716 13.255243,21.824975 15.658826,19.204257 17.06106,20.886593 14.704786,22.28747 13.761855,23.460323 12.035512,25.362181 10.315424,27.269721 8.6030633,29.18418 9.3087124,30.717865 11.166683,31.716183 12.521157,32.28515 14.013904,31.414783 14.681952,29.657619 16.007056,28.568874 17.470592,26.888167 18.891795,25.169642 20.41123,23.538372 21.928194,24.771808 21.592235,21.330646 22.794746,22.687561 23.281204,22.891828 22.723958,21.858637 23.388782,22.482823 23.822525,23.162738 24.280865,24.318626 25.069476,23.644786 26.039012,24.43919 27.132328,24.739602 27.208387,25.872397 27.623519,26.718399 25.51396,26.466135 25.827201,27.688624 25.496915,29.248341 28.375408,29.267668 27.842383,30.448205 27.131814,30.962587 28.844551,31.226424 29.039601,30.40055 29.70734,29.969461 30.625962,27.474693 31.17587,29.071538 30.662329,30.022211 29.84916,31.176928 30.373316,32.218581 31.564516,32.456369 32.27354,33.092245 33.394889,32.46567 35.282445,33.114074 32.418219,29.799946 34.106617,31.342554 34.467003,32.755261 35.707263,32.991637 36.647303,32.266163 37.234957,32.842788 38.908339,31.252316 38.699405,32.707514 37.906573,32.878929 37.121334,34.097241 38.402719,33.977233 38.722017,34.1607 39.405729,34.975459 39.011039,34.13229 39.728665,33.915761 39.653413,34.520146 39.50562,34.700741 41.172642,35.900143 39.158222,37.532903 38.633334,38.888165 36.679712,41.6981 34.711266,44.502018 32.837381,47.367834 33.027613,48.441415 35.058376,49.676925 35.079791,47.938775 37.39838,44.613299 39.632749,41.224715 41.827442,37.815041 41.541417,37.307925 42.20884,37.353597 41.725421,36.814245 42.975791,35.904737 43.792564,38.341543 44.974255,38.783184 45.960648,39.65177 43.866071,40.172419 44.772481,41.281737 44.643477,42.460264 43.451063,43.297763 42.967996,44.441424 41.456337,46.864785 39.950068,49.29246 38.357361,51.66382 39.269263,53.207843 41.132369,52.509615 41.505969,50.834327 42.335743,49.208772 43.476016,47.76212 44.373343,46.16437 45.299461,44.664524 46.222767,43.162927 47.137702,41.656227 46.629895,40.949986 46.580439,40.894407 47.382704,41.418406 48.380912,42.779119 46.09223,44.103883 45.719161,45.441632 44.857217,47.062796 43.74469,48.512548 42.881528,50.131703 42.323662,51.447001 39.92682,53.179833 41.867143,54.39746 43.345236,55.467794 43.151544,52.712669 44.19271,52.064443 45.76435,49.31638 47.522955,46.670068 49.015267,43.873566 49.866645,43.443257 48.160374,42.481722 49.22559,42.964714 48.861338,42.150495 47.286378,41.2714 48.585064,40.206556 49.784571,38.79648 51.592555,41.208707 52.323113,39.117249 53.086036,37.527057 54.021521,36.055754 54.957581,34.565938 55.781601,33.190543 56.600416,31.811869 57.393204,30.418172 56.541921,29.133426 54.053458,27.01903 52.801065,28.681766 50.963766,31.663232 49.02548,34.584337 47.232075,37.594872 47.39864,38.161744 49.616932,39.531451 47.967548,39.025474 46.832342,38.033961 44.702841,37.029822 44.374705,35.818828 45.419887,35.989799 46.863567,36.753032 47.20634,35.124473 48.780149,32.359682 50.630314,29.76434 52.271612,27.039365 51.46335,24.834793 49.200846,27.084557 48.945227,28.472117 47.480456,30.666763 46.08949,32.909606 44.624678,35.104224 43.678026,35.220145 42.752954,35.707312 42.117646,34.649484 41.005843,33.886511 38.058047,32.51432 39.900089,31.045035 41.425719,29.659051 38.601067,30.479251 37.912024,30.538086 35.902498,31.090679 35.394006,28.936238 34.051904,28.175002 32.99726,28.271645 32.853574,27.417103 32.572628,26.658199 32.123857,27.158125 31.101667,27.863407 31.142337,26.60026 31.471182,26.181217 31.942273,27.11922 32.370303,26.209705 32.83707,25.93515 33.687392,24.618975 32.669739,25.064273 32.493696,25.468868 31.872171,26.052716 31.801946,25.249454 30.794852,26.217311 29.345494,25.969653 29.137027,24.486595 28.721434,22.976161 27.158799,22.544225 26.080964,21.646269 25.243574,20.934478 24.475786,19.183038 23.568805,20.910322 22.801605,21.740066 20.656311,18.781799 22.278983,19.875154 24.293086,20.244114 24.829854,17.606911 26.211528,16.652874 27.638053,15.014663 29.068969,13.380189 30.478591,11.727363 30.159591,11.040138 29.117427,10.93384 30.15666,11.050509 29.204081,10.16419 27.357557,8.8360854 26.290767,10.251145 24.959858,11.331704 24.067596,12.812587 22.812128,13.96997 21.6539,15.218839 20.552984,16.519161 19.40753,17.779557 18.450986,17.739826 16.511061,16.28601 16.777418,16.043453 18.231189,17.423537 19.503955,15.682328 20.279347,14.563973 22.082414,12.599816 23.90214,10.651058 25.715889,8.696785 24.827604,6.4641304 22.615704,8.8061083 21.887013,9.9734469 20.14846,11.803157 18.46269,13.683838 16.66834,15.459912 16.081258,13.682309 18.682616,13.086905 19.318496,11.675853 20.74525,10.177143 22.164278,8.6700939 23.644038,7.2231633 23.532724,6.6207695 22.672808,6.04332 23.666382,6.6752623 23.981852,6.9823865 25.824601,8.5952195 25.363279,7.6238216 24.442254,6.9008357 23.444322,6.2846179 22.5,5.59375 z M 0.6875,0.25 C 20.42242,0.25127296 40.157341,0.24745386 59.892261,0.25190996 60.723758,1.8466358 59.946024,3.6875101 60.242936,5.3877284 60.25849,23.555172 60.245573,41.722624 60.250269,59.890071 58.421436,60.734974 56.374253,59.967531 54.45058,60.247515 36.506339,60.25047 18.562096,60.252217 0.61785434,60.247705 -0.2214401,58.623923 0.5475786,56.753304 0.25611691,55.023456 0.24392562,36.897335 0.25119252,18.77121 0.25181072,0.64508691 0.27332595,0.4304695 0.47019825,0.24762197 0.6875,0.25 z"
     id="rect3014"
     inkscape:connector-curvature="0" />
</svg>
